<svg width="28" height="28" viewBox="0 0 28 28" fill="none" xmlns="http://www.w3.org/2000/svg">
<rect x="2" y="2" width="24" height="24" rx="12" fill="#009B3A"/>
<rect x="1" y="1" width="26" height="26" rx="13" stroke="#8F9BB3" stroke-opacity="0.12" stroke-width="2"/>
<path d="M24 14.0004L14 22L4 14.0004L14 6L24 14.0004Z" fill="#FEDF01"/>
<path d="M14.3053 18.6107C16.6831 18.6107 18.6107 16.6831 18.6107 14.3053C18.6107 11.9276 16.6831 10 14.3053 10C11.9276 10 10 11.9276 10 14.3053C10 16.6831 11.9276 18.6107 14.3053 18.6107Z" fill="#002776"/>
<path d="M10.448 12.0001C10.2244 12.4214 10.073 12.8773 10 13.3487C12.6633 13.1554 16.278 14.6094 17.8293 16.4121C18.0973 16.0094 18.296 15.5587 18.418 15.0761C16.5033 13.2041 13.14 11.9894 10.448 12.0001Z" fill="#CBE9D4"/>
</svg>
