<svg width="20" height="20" viewBox="0 0 20 20" fill="none" xmlns="http://www.w3.org/2000/svg">
<g clip-path="url(#clip0_26324_24873)">
<path d="M19.7623 10.1873C19.7623 9.36792 19.6958 8.76998 19.552 8.1499H10.1953V11.8482H15.6874C15.5768 12.7673 14.9788 14.1514 13.65 15.0815L13.6314 15.2053L16.5898 17.4972L16.7948 17.5176C18.6771 15.7791 19.7623 13.2213 19.7623 10.1873Z" fill="#4285F4"/>
<path d="M10.1937 19.9312C12.8844 19.9312 15.1432 19.0453 16.7932 17.5173L13.6484 15.0812C12.8069 15.6681 11.6774 16.0777 10.1937 16.0777C7.55834 16.0777 5.32163 14.3393 4.5243 11.9365L4.40743 11.9464L1.33124 14.3271L1.29102 14.439C2.92979 17.6944 6.29598 19.9312 10.1937 19.9312Z" fill="#34A853"/>
<path d="M4.52478 11.9368C4.31439 11.3167 4.19264 10.6523 4.19264 9.96583C4.19264 9.27927 4.31439 8.61492 4.51371 7.99484L4.50813 7.86278L1.3934 5.44385L1.29149 5.49232C0.616073 6.84324 0.228516 8.36026 0.228516 9.96583C0.228516 11.5714 0.616073 13.0884 1.29149 14.4393L4.52478 11.9368Z" fill="#FBBC05"/>
<path d="M10.1937 3.85336C12.065 3.85336 13.3273 4.66168 14.047 5.33718L16.8596 2.59107C15.1322 0.985496 12.8844 0 10.1937 0C6.29598 0 2.92979 2.23672 1.29102 5.49214L4.51323 7.99466C5.32163 5.59183 7.55834 3.85336 10.1937 3.85336Z" fill="#EB4335"/>
</g>
<defs>
<clipPath id="clip0_26324_24873">
<rect width="20" height="20" fill="white"/>
</clipPath>
</defs>
</svg>
