<svg width="1024" height="1024" viewBox="0 0 1024 1024" fill="none" xmlns="http://www.w3.org/2000/svg">
<rect width="1024" height="1024" rx="512" fill="#121314"/>
<path d="M800.012 345.628H735.988C725.349 345.628 716.8 354.269 716.8 364.81V469.457C716.8 479.143 709.581 487.31 699.986 488.544L635.963 496.521C624.469 497.946 614.4 489.019 614.4 477.434V223.982C614.4 213.346 605.756 204.8 595.212 204.8H531.188C520.549 204.8 512 213.441 512 223.982V495.097C512 504.783 504.781 512.949 495.186 514.184L431.163 522.161C419.669 523.585 409.6 514.659 409.6 503.073V364.81C409.6 354.174 400.956 345.628 390.412 345.628H326.388C315.749 345.628 307.2 354.269 307.2 364.81V520.641C307.2 530.327 299.981 538.494 290.386 539.729L221.613 548.37C212.019 549.605 204.8 557.771 204.8 567.457V672.105C204.8 682.74 213.444 691.287 223.988 691.287H288.012C298.651 691.287 307.2 682.645 307.2 672.105V554.543C307.2 544.856 314.419 536.69 324.013 535.455L388.037 527.478C399.531 526.054 409.6 534.981 409.6 546.566V800.018C409.6 810.653 418.244 819.2 428.788 819.2H492.812C503.451 819.2 512 810.558 512 800.018V528.998C512 519.312 519.219 511.145 528.813 509.911L592.837 501.934C604.331 500.51 614.4 509.436 614.4 521.021V672.105C614.4 682.74 623.044 691.287 633.588 691.287H697.612C708.251 691.287 716.8 682.645 716.8 672.105V503.358C716.8 493.672 724.019 485.506 733.613 484.271L802.386 475.63C811.981 474.395 819.2 466.228 819.2 456.542V364.81C819.2 354.174 810.651 345.628 800.012 345.628Z" fill="#A255FF"/>
</svg>
