<svg width="120" height="120" viewBox="0 0 120 120" fill="none" xmlns="http://www.w3.org/2000/svg">
<path d="M93.7514 40.5032H86.2486C85.0019 40.5032 84 41.5159 84 42.7512V55.0145C84 56.1496 83.154 57.1066 82.0297 57.2513L74.5269 58.1861C73.18 58.353 72 57.307 72 55.9493V26.2479C72 25.0015 70.987 24 69.7514 24H62.2486C61.0019 24 60 25.0127 60 26.2479V58.0192C60 59.1543 59.154 60.1113 58.0297 60.256L50.5269 61.1907C49.18 61.3577 48 60.3116 48 58.9539V42.7512C48 41.5048 46.987 40.5032 45.7514 40.5032H38.2486C37.0019 40.5032 36 41.5159 36 42.7512V61.0127C36 62.1478 35.154 63.1048 34.0297 63.2495L25.9703 64.2621C24.846 64.4068 24 65.3638 24 66.4989V78.7623C24 80.0087 25.013 81.0102 26.2486 81.0102H33.7514C34.9981 81.0102 36 79.9975 36 78.7623V64.9855C36 63.8504 36.846 62.8934 37.9703 62.7487L45.4731 61.8139C46.82 61.647 48 62.6931 48 64.0507V93.7521C48 94.9985 49.013 96 50.2486 96H57.7514C58.9981 96 60 94.9873 60 93.7521V61.992C60 60.8569 60.846 59.8998 61.9703 59.7552L69.4731 58.8204C70.82 58.6535 72 59.6995 72 61.0572V78.7623C72 80.0087 73.013 81.0102 74.2486 81.0102H81.7514C82.9981 81.0102 84 79.9975 84 78.7623V58.9873C84 57.8522 84.846 56.8952 85.9703 56.7505L94.0297 55.7379C95.154 55.5932 96 54.6362 96 53.5011V42.7512C96 41.5048 94.9981 40.5032 93.7514 40.5032Z" fill="#A1A7B2"/>
</svg>
