<svg width="632" height="214" viewBox="0 0 632 214" fill="none" xmlns="http://www.w3.org/2000/svg">
<path d="M202.953 166.455V9.62344C202.953 6.42966 205.565 3.82422 208.767 3.82422H230.718C233.921 3.82422 236.533 6.42966 236.533 9.62344V166.455C236.533 169.648 233.921 172.254 230.718 172.254H208.767C205.565 172.212 202.953 169.648 202.953 166.455Z" fill="white"/>
<path d="M524.635 168.724L456.718 11.8927C455.074 8.06858 457.855 3.82422 462.026 3.82422H487.769C490.129 3.82422 492.235 5.25301 493.12 7.3962L549.578 144.602L537.654 145.233L594.238 7.3962C595.123 5.21099 597.229 3.82422 599.589 3.82422H625.29C629.461 3.82422 632.284 8.06858 630.598 11.8927L562.765 168.724C561.838 170.825 559.774 172.212 557.456 172.212H529.944C527.627 172.212 525.562 170.867 524.635 168.724Z" fill="white"/>
<path d="M88.3097 176.078C37.9614 176.078 0 138.215 0 88.0389C0 37.863 37.9614 0 88.2676 0C138.616 0 176.535 37.863 176.535 88.0389C176.535 138.215 138.616 176.078 88.3097 176.078ZM88.3097 31.5175C57.0474 31.5175 34.338 55.3027 34.338 88.0389C34.338 120.775 57.0474 144.56 88.3097 144.56C119.572 144.56 142.281 120.775 142.281 88.0389C142.281 55.3027 119.572 31.5175 88.3097 31.5175Z" fill="white"/>
<path d="M88.9023 201.082V173.557L148.267 180.533C151.174 180.869 153.407 183.348 153.407 186.29V207.301C153.407 210.747 150.374 213.437 146.919 213.059L94.0425 206.839C91.1353 206.503 88.9023 204.024 88.9023 201.082Z" fill="white"/>
<path d="M400.639 172.212C398.827 172.212 397.099 171.371 396.004 169.9L297.372 38.2834L307.568 35.5939V166.413C307.568 169.606 304.956 172.212 301.754 172.212H279.803C276.6 172.212 273.988 169.606 273.988 166.413V9.62344C273.988 6.42966 276.6 3.82422 279.803 3.82422H308.495C310.306 3.82422 312.034 4.66469 313.129 6.1355L410.118 135.483L401.565 141.745V9.62344C401.565 6.42966 404.178 3.82422 407.38 3.82422H429.331C432.533 3.82422 435.145 6.42966 435.145 9.62344V166.455C435.145 169.648 432.533 172.254 429.331 172.254H400.639V172.212Z" fill="white"/>
</svg>
