<svg width="194" height="194" viewBox="0 0 194 194" fill="none" xmlns="http://www.w3.org/2000/svg">
<g filter="url(#filter0_d_9037_15600)">
<path d="M165.44 57.4649H150.226C147.698 57.4649 145.667 59.5184 145.667 62.0232V86.8906C145.667 89.1923 143.951 91.1329 141.671 91.4263L126.457 93.3218C123.726 93.6603 121.333 91.5391 121.333 88.7861V28.5583C121.333 26.0309 119.279 24 116.774 24H101.56C99.0315 24 97 26.0535 97 28.5583V92.9833C97 95.285 95.2845 97.2257 93.0046 97.519L77.7907 99.4145C75.0594 99.753 72.6667 97.6318 72.6667 94.8788V62.0232C72.6667 59.4958 70.6126 57.4649 68.107 57.4649H52.893C50.3649 57.4649 48.3333 59.5184 48.3333 62.0232V99.0535C48.3333 101.355 46.6178 103.296 44.338 103.589L27.9954 105.643C25.7155 105.936 24 107.877 24 110.178V135.046C24 137.573 26.0541 139.604 28.5597 139.604H43.7737C46.3018 139.604 48.3333 137.551 48.3333 135.046V107.109C48.3333 104.808 50.0489 102.867 52.3287 102.574L67.5427 100.678C70.274 100.34 72.6667 102.461 72.6667 105.214V165.442C72.6667 167.969 74.7208 170 77.2263 170H92.4403C94.9685 170 97 167.947 97 165.442V101.039C97 98.7376 98.7155 96.7969 100.995 96.5036L116.209 94.608C118.941 94.2696 121.333 96.3907 121.333 99.1437V135.046C121.333 137.573 123.387 139.604 125.893 139.604H141.107C143.635 139.604 145.667 137.551 145.667 135.046V94.9465C145.667 92.6448 147.382 90.7042 149.662 90.4108L166.005 88.3573C168.284 88.064 170 86.1233 170 83.8216V62.0232C170 59.4958 167.968 57.4649 165.44 57.4649Z" fill="#A255FF"/>
<path d="M101.56 24.5H116.773C119.005 24.5 120.833 26.3091 120.833 28.5586V88.7861C120.833 91.8385 123.488 94.1937 126.519 93.8184H126.52L141.733 91.9229L141.735 91.9219C144.263 91.5965 146.167 89.4448 146.167 86.8906V62.0234C146.167 59.7933 147.976 57.9648 150.227 57.9648H165.44C167.693 57.9649 169.5 59.7724 169.5 62.0234V83.8213C169.5 85.8704 167.972 87.5999 165.94 87.8613L149.6 89.915H149.599C147.071 90.2403 145.167 92.3921 145.167 94.9463V135.046C145.167 137.276 143.358 139.104 141.107 139.104H125.893C123.662 139.104 121.833 137.295 121.833 135.046V99.1436C121.833 96.1865 119.342 93.8844 116.431 94.085L116.147 94.1123L100.934 96.0078H100.932C98.4036 96.3331 96.5001 98.4849 96.5 101.039V165.441C96.5 167.671 94.6909 169.5 92.4404 169.5H77.2266C74.9954 169.5 73.167 167.691 73.167 165.441V105.214C73.167 102.162 70.5119 99.8063 67.4814 100.182H67.4805L52.2666 102.077L52.2646 102.078C49.7367 102.404 47.833 104.555 47.833 107.109V135.046C47.8329 137.276 46.0239 139.104 43.7734 139.104H28.5596C26.3285 139.104 24.5001 137.295 24.5 135.046V110.179L24.5049 109.987C24.5964 108.023 26.0908 106.391 28.0586 106.138L44.4004 104.085H44.4014C46.9294 103.76 48.8329 101.608 48.833 99.0537V62.0234C48.833 59.7935 50.6423 57.9651 52.8926 57.9648H68.1074C70.3384 57.9651 72.167 59.7741 72.167 62.0234V94.8789C72.167 97.9313 74.822 100.287 77.8525 99.9111L93.0664 98.0156L93.0684 98.0146C95.5965 97.6893 97.5 95.5376 97.5 92.9834V28.5586C97.5 26.3285 99.3091 24.5001 101.56 24.5Z" stroke="#8F9BB3" stroke-opacity="0.24"/>
</g>
<defs>
<filter id="filter0_d_9037_15600" x="24" y="24" width="149" height="150" filterUnits="userSpaceOnUse" color-interpolation-filters="sRGB">
<feFlood flood-opacity="0" result="BackgroundImageFix"/>
<feColorMatrix in="SourceAlpha" type="matrix" values="0 0 0 0 0 0 0 0 0 0 0 0 0 0 0 0 0 0 127 0" result="hardAlpha"/>
<feOffset dx="2" dy="3"/>
<feGaussianBlur stdDeviation="0.5"/>
<feComposite in2="hardAlpha" operator="out"/>
<feColorMatrix type="matrix" values="0 0 0 0 0.635294 0 0 0 0 0.333333 0 0 0 0 1 0 0 0 0.3 0"/>
<feBlend mode="normal" in2="BackgroundImageFix" result="effect1_dropShadow_9037_15600"/>
<feBlend mode="normal" in="BackgroundImageFix" in2="effect1_dropShadow_9037_15600" result="BackgroundImageFix"/>
<feBlend mode="normal" in="SourceGraphic" in2="BackgroundImageFix" result="shape"/>
</filter>
</defs>
</svg>
