<svg width="702" height="214" viewBox="0 0 702 214" fill="none" xmlns="http://www.w3.org/2000/svg">
<g clip-path="url(#clip0_28278_23250)">
<path d="M417.66 160.294V57.0812C417.66 54.9793 419.388 53.2646 421.506 53.2646H436.027C438.145 53.2646 439.873 54.9793 439.873 57.0812V160.294C439.873 162.396 438.145 164.11 436.027 164.11H421.506C419.388 164.083 417.66 162.396 417.66 160.294Z" fill="white"/>
<path d="M630.452 161.787L585.525 58.5746C584.438 56.0579 586.277 53.2646 589.036 53.2646H606.065C607.626 53.2646 609.02 54.205 609.605 55.6154L646.952 145.913L639.064 146.327L676.494 55.6154C677.08 54.1773 678.473 53.2646 680.034 53.2646H697.035C699.794 53.2646 701.662 56.0579 700.547 58.5746L655.675 161.787C655.062 163.17 653.696 164.083 652.163 164.083H633.964C632.431 164.083 631.065 163.198 630.452 161.787Z" fill="white"/>
<path d="M341.824 166.628C308.518 166.628 283.407 141.71 283.407 108.689C283.407 75.6672 308.518 50.749 341.796 50.749C375.101 50.749 400.185 75.6672 400.185 108.689C400.185 141.71 375.101 166.628 341.824 166.628ZM341.824 71.4911C321.144 71.4911 306.121 87.1445 306.121 108.689C306.121 130.233 321.144 145.886 341.824 145.886C362.504 145.886 377.526 130.233 377.526 108.689C377.526 87.1445 362.504 71.4911 341.824 71.4911Z" fill="white"/>
<path d="M342.215 183.083V164.969L381.485 169.56C383.408 169.781 384.885 171.413 384.885 173.349V187.177C384.885 189.444 382.879 191.214 380.593 190.965L345.616 186.872C343.692 186.651 342.215 185.019 342.215 183.083Z" fill="white"/>
<path d="M548.43 164.083C547.231 164.083 546.089 163.53 545.364 162.562L480.119 75.9426L486.863 74.1727V160.266C486.863 162.368 485.135 164.083 483.017 164.083H468.497C466.378 164.083 464.65 162.368 464.65 160.266V57.0812C464.65 54.9793 466.378 53.2646 468.497 53.2646H487.476C488.675 53.2646 489.818 53.8178 490.542 54.7857L554.701 139.911L549.043 144.032V57.0812C549.043 54.9793 550.771 53.2646 552.889 53.2646H567.41C569.528 53.2646 571.256 54.9793 571.256 57.0812V160.294C571.256 162.396 569.528 164.11 567.41 164.11H548.43V164.083Z" fill="white"/>
<path d="M201.753 56.3286H180.906C177.45 56.3286 174.663 59.0942 174.663 62.5235V96.3193C174.663 99.4444 172.322 102.099 169.2 102.487L148.353 105.059C144.618 105.529 141.329 102.625 141.329 98.8913V17.0016C141.329 13.5723 138.542 10.8066 135.086 10.8066H114.239C110.783 10.8066 107.996 13.5723 107.996 17.0016V104.561C107.996 107.686 105.655 110.341 102.506 110.728L81.6583 113.3C77.9236 113.77 74.6349 110.866 74.6349 107.133V62.4682C74.6349 59.0389 71.8478 56.2733 68.3919 56.2733H47.5446C44.0886 56.2733 41.3016 59.0389 41.3016 62.4682V112.802C41.3016 115.927 38.9604 118.582 35.8389 118.97L13.4587 121.735C10.3372 122.122 7.99609 124.75 7.99609 127.903V161.698C7.99609 165.128 10.7832 167.893 14.2391 167.893H35.0864C38.5424 167.893 41.3294 165.128 41.3294 161.698V123.754C41.3294 120.629 43.6706 117.974 46.7921 117.587L67.6394 115.015C71.374 114.545 74.6628 117.449 74.6628 121.182V203.072C74.6628 206.501 77.4498 209.267 80.9058 209.267H101.753C105.209 209.267 107.996 206.501 107.996 203.072V115.513C107.996 112.387 110.337 109.76 113.459 109.345L134.306 106.746C138.041 106.275 141.329 109.179 141.329 112.913V161.698C141.329 165.128 144.117 167.893 147.572 167.893H168.42C171.876 167.893 174.663 165.128 174.663 161.698V107.216C174.663 104.091 177.004 101.436 180.125 101.048L202.506 98.2829C205.627 97.8957 207.968 95.2684 207.968 92.1156V62.4406C207.996 59.1218 205.209 56.3286 201.753 56.3286Z" fill="#A255FF"/>
</g>
<defs>
<clipPath id="clip0_28278_23250">
<rect width="701.285" height="213.229" fill="white"/>
</clipPath>
</defs>
</svg>
